{
	"asset":{
		"generator":"Khronos glTF Blender I/O v4.5.48",
		"version":"2.0"
	},
	"scene":0,
	"scenes":[
		{
			"name":"Scene",
			"nodes":[
				0
			]
		}
	],
	"nodes":[
		{
			"mesh":0,
			"name":"1-0-0-2702_jose cerda_UPPER_ARCH"
		}
	],
	"materials":[
		{
			"doubleSided":true,
			"name":"DefaultMaterial",
			"pbrMetallicRoughness":{
				"metallicFactor":0,
				"roughnessFactor":0.5
			}
		}
	],
	"meshes":[
		{
			"name":"1-0-0-2702_jose cerda_UPPER_ARCH",
			"primitives":[
				{
					"attributes":{
						"POSITION":0,
						"NORMAL":1,
						"COLOR_0":2
					},
					"indices":3,
					"material":0
				}
			]
		}
	],
	"accessors":[
		{
			"bufferView":0,
			"componentType":5126,
			"count":935153,
			"max":[
				-0.3824089765548706,
				13.693658828735352,
				22.224489212036133
			],
			"min":[
				-70.9247817993164,
				-7.520515441894531,
				-42.67460632324219
			],
			"type":"VEC3"
		},
		{
			"bufferView":1,
			"componentType":5126,
			"count":935153,
			"type":"VEC3"
		},
		{
			"bufferView":2,
			"componentType":5126,
			"count":935153,
			"type":"VEC3"
		},
		{
			"bufferView":3,
			"componentType":5125,
			"count":935565,
			"type":"SCALAR"
		}
	],
	"bufferViews":[
		{
			"buffer":0,
			"byteLength":11221836,
			"byteOffset":0,
			"target":34962
		},
		{
			"buffer":0,
			"byteLength":11221836,
			"byteOffset":11221836,
			"target":34962
		},
		{
			"buffer":0,
			"byteLength":11221836,
			"byteOffset":22443672,
			"target":34962
		},
		{
			"buffer":0,
			"byteLength":3742260,
			"byteOffset":33665508,
			"target":34963
		}
	],
	"buffers":[
		{
			"byteLength":37407768,
			"uri":"Untitled.bin"
		}
	]
}
