{
	"asset":{
		"generator":"Khronos glTF Blender I/O v4.5.48",
		"version":"2.0"
	},
	"scene":0,
	"scenes":[
		{
			"name":"Scene",
			"nodes":[
				5
			]
		}
	],
	"nodes":[
		{
			"mesh":0,
			"name":"Cylinder_Material.006_0"
		},
		{
			"children":[
				0
			],
			"name":"Cylinder",
			"rotation":[
				-0.70710688829422,
				0,
				0,
				0.7071066498756409
			],
			"scale":[
				100,
				99.9999771118164,
				99.99998474121094
			]
		},
		{
			"name":"Gem",
			"scale":[
				25.1295223236084,
				25.129520416259766,
				25.129520416259766
			],
			"translation":[
				0,
				-5.276873707771301e-06,
				126.26669311523438
			]
		},
		{
			"children":[
				1,
				2
			],
			"name":"RootNode"
		},
		{
			"children":[
				3
			],
			"name":"392bd8cb0d3c4dde952ea0ee3b82798a.fbx",
			"rotation":[
				0.7071068286895752,
				0,
				0,
				0.7071067094802856
			],
			"scale":[
				0.009999999776482582,
				0.010000001639127731,
				0.010000000707805157
			]
		},
		{
			"children":[
				4
			],
			"name":"Sketchfab_model",
			"rotation":[
				-0.9343760013580322,
				-0.007176774553954601,
				0.012274112552404404,
				0.3560047149658203
			],
			"scale":[
				0.27086538076400757,
				0.27086547017097473,
				0.27086547017097473
			]
		}
	],
	"materials":[
		{
			"doubleSided":true,
			"name":"Material.006",
			"pbrMetallicRoughness":{
				"baseColorFactor":[
					1,
					0.7471590042114258,
					0.1971990019083023,
					1
				],
				"metallicFactor":0.985907793045044,
				"roughnessFactor":0.022857213392853737
			}
		}
	],
	"meshes":[
		{
			"name":"Cylinder_Material.006_0",
			"primitives":[
				{
					"attributes":{
						"POSITION":0,
						"NORMAL":1,
						"TEXCOORD_0":2
					},
					"indices":3,
					"material":0
				}
			]
		}
	],
	"accessors":[
		{
			"bufferView":0,
			"componentType":5126,
			"count":1225,
			"max":[
				0.9934362769126892,
				0.9934363961219788,
				0.1883138120174408
			],
			"min":[
				-0.9934362769126892,
				-1.3342092037200928,
				-0.18831385672092438
			],
			"type":"VEC3"
		},
		{
			"bufferView":1,
			"componentType":5126,
			"count":1225,
			"type":"VEC3"
		},
		{
			"bufferView":2,
			"componentType":5126,
			"count":1225,
			"type":"VEC2"
		},
		{
			"bufferView":3,
			"componentType":5123,
			"count":5730,
			"type":"SCALAR"
		}
	],
	"bufferViews":[
		{
			"buffer":0,
			"byteLength":14700,
			"byteOffset":0,
			"target":34962
		},
		{
			"buffer":0,
			"byteLength":14700,
			"byteOffset":14700,
			"target":34962
		},
		{
			"buffer":0,
			"byteLength":9800,
			"byteOffset":29400,
			"target":34962
		},
		{
			"buffer":0,
			"byteLength":11460,
			"byteOffset":39200,
			"target":34963
		}
	],
	"buffers":[
		{
			"byteLength":50660,
			"uri":"scene.bin"
		}
	]
}
