{
  "accessors": [
    {
      "bufferView": 2,
      "componentType": 5126,
      "count": 1210,
      "max": [
        0.9934362769126892,
        0.9934363961219788,
        0.1883138120174408
      ],
      "min": [
        -0.9934362769126892,
        -1.3342092037200928,
        -0.18831385672092438
      ],
      "type": "VEC3"
    },
    {
      "bufferView": 2,
      "byteOffset": 14520,
      "componentType": 5126,
      "count": 1210,
      "max": [
        1.0,
        1.0,
        0.9999185800552368
      ],
      "min": [
        -1.0,
        -1.0,
        -0.9968968033790588
      ],
      "type": "VEC3"
    },
    {
      "bufferView": 1,
      "componentType": 5126,
      "count": 1210,
      "max": [
        1.0000001192092896,
        0.9998088479042053
      ],
      "min": [
        0.0,
        0.0100088557228446
      ],
      "type": "VEC2"
    },
    {
      "bufferView": 0,
      "componentType": 5125,
      "count": 5730,
      "type": "SCALAR"
    },
    {
      "bufferView": 2,
      "byteOffset": 29040,
      "componentType": 5126,
      "count": 145,
      "max": [
        0.9238795042037964,
        0.9238795042037964,
        0.3499999940395355
      ],
      "min": [
        -0.9238795042037964,
        -0.9238795042037964,
        -0.800000011920929
      ],
      "type": "VEC3"
    },
    {
      "bufferView": 2,
      "byteOffset": 30780,
      "componentType": 5126,
      "count": 145,
      "max": [
        0.94927978515625,
        0.9492796659469604,
        0.8718948364257813
      ],
      "min": [
        -0.94927978515625,
        -0.9492796659469604,
        -1.0
      ],
      "type": "VEC3"
    },
    {
      "bufferView": 0,
      "byteOffset": 22920,
      "componentType": 5125,
      "count": 192,
      "type": "SCALAR"
    }
  ],
  "asset": {
    "extras": {
      "author": "LucasNeves (https://sketchfab.com/lucasjosemone)",
      "license": "CC-BY-4.0 (http://creativecommons.org/licenses/by/4.0/)",
      "source": "https://sketchfab.com/3d-models/ring-gold-with-diamond-5a03949eea904d6989f87aaf5d172722",
      "title": "Ring, Gold with Diamond"
    },
    "generator": "Sketchfab-14.81.0",
    "version": "2.0"
  },
  "bufferViews": [
    {
      "buffer": 0,
      "byteLength": 23688,
      "name": "floatBufferViews",
      "target": 34963
    },
    {
      "buffer": 0,
      "byteLength": 9680,
      "byteOffset": 23688,
      "byteStride": 8,
      "name": "floatBufferViews",
      "target": 34962
    },
    {
      "buffer": 0,
      "byteLength": 32520,
      "byteOffset": 33368,
      "byteStride": 12,
      "name": "floatBufferViews",
      "target": 34962
    }
  ],
  "buffers": [
    {
      "byteLength": 65888,
      "uri": "scene.bin"
    }
  ],
  "extensionsUsed": [
    "KHR_materials_specular",
    "KHR_materials_transmission"
  ],
  "materials": [
    {
      "doubleSided": true,
      "extensions": {
        "KHR_materials_specular": {
          "specularColorFactor": [
            1.0,
            1.0,
            1.0
          ],
          "specularFactor": 1.0
        }
      },
      "name": "Material.006",
      "pbrMetallicRoughness": {
        "baseColorFactor": [
          1.0,
          0.7471589999999995,
          0.19719899999999993,
          1.0
        ],
        "metallicFactor": 0.9859077665760504,
        "roughnessFactor": 0.0228572125172191
      }
    },
    {
      "alphaMode": "BLEND",
      "doubleSided": true,
      "extensions": {
        "KHR_materials_specular": {
          "specularColorFactor": [
            1.0,
            1.0,
            1.0
          ],
          "specularFactor": 1.0
        },
        "KHR_materials_transmission": {
          "transmissionFactor": 1.0
        }
      },
      "name": "Material.002",
      "pbrMetallicRoughness": {
        "baseColorFactor": [
          0.0,
          0.0,
          0.0,
          0.25
        ],
        "roughnessFactor": 0.059428752544769654
      }
    }
  ],
  "meshes": [
    {
      "name": "Cylinder_Material.006_0",
      "primitives": [
        {
          "attributes": {
            "NORMAL": 1,
            "POSITION": 0,
            "TEXCOORD_0": 2
          },
          "indices": 3,
          "material": 0,
          "mode": 4
        }
      ]
    },
    {
      "name": "Gem_Material.002_0",
      "primitives": [
        {
          "attributes": {
            "NORMAL": 5,
            "POSITION": 4
          },
          "indices": 6,
          "material": 1,
          "mode": 4
        }
      ]
    }
  ],
  "nodes": [
    {
      "children": [
        1
      ],
      "matrix": [
        0.27075587034954296,
        0.005999910002872922,
        -0.004828808084603285,
        0.0,
        0.0012655706442223358,
        -0.20217884401522565,
        -0.1802502997380629,
        0.0,
        -0.007597015082025371,
        0.18015485147471116,
        -0.2021251301498381,
        0.0,
        0.0,
        0.0,
        0.0,
        1.0
      ],
      "name": "Sketchfab_model"
    },
    {
      "children": [
        2
      ],
      "matrix": [
        0.009999999776482582,
        0.0,
        0.0,
        0.0,
        0.0,
        0.0,
        0.009999999776482582,
        0.0,
        0.0,
        -0.009999999776482582,
        0.0,
        0.0,
        0.0,
        0.0,
        0.0,
        1.0
      ],
      "name": "392bd8cb0d3c4dde952ea0ee3b82798a.fbx"
    },
    {
      "children": [
        3,
        5
      ],
      "name": "RootNode"
    },
    {
      "children": [
        4
      ],
      "matrix": [
        100.0,
        0.0,
        0.0,
        0.0,
        0.0,
        -1.629206793918314e-05,
        -99.99999999999868,
        0.0,
        0.0,
        99.99999999999868,
        -1.629206793918314e-05,
        0.0,
        0.0,
        0.0,
        0.0,
        1.0
      ],
      "name": "Cylinder"
    },
    {
      "mesh": 0,
      "name": "Cylinder_Material.006_0"
    },
    {
      "children": [
        6
      ],
      "matrix": [
        25.12952423095703,
        -5.579875279816857e-15,
        -5.57987461464389e-15,
        0.0,
        5.5798741933750796e-15,
        25.129524230956555,
        -4.892898890966673e-06,
        0.0,
        5.579875701085586e-15,
        4.892898890966673e-06,
        25.129524230956555,
        0.0,
        0.0,
        0.0,
        126.26671600341797,
        1.0
      ],
      "name": "Gem"
    },
    {
      "mesh": 1,
      "name": "Gem_Material.002_0"
    }
  ],
  "scene": 0,
  "scenes": [
    {
      "name": "Sketchfab_Scene",
      "nodes": [
        0
      ]
    }
  ]
}
